<?xml version="1.0" encoding="UTF-8" standalone="no"?>
<!-- Created with Inkscape (http://www.inkscape.org/) -->

<svg
   version="1.1"
   id="svg374"
   width="950"
   height="220"
   viewBox="0 0 950 220"
   sodipodi:docname="lbmheader.svg"
   inkscape:version="1.2.2 (732a01da63, 2022-12-09, custom)"
   inkscape:export-filename="../9460952b/lbmheader.png"
   inkscape:export-xdpi="96"
   inkscape:export-ydpi="96"
   xmlns:inkscape="http://www.inkscape.org/namespaces/inkscape"
   xmlns:sodipodi="http://sodipodi.sourceforge.net/DTD/sodipodi-0.dtd"
   xmlns="http://www.w3.org/2000/svg"
   xmlns:svg="http://www.w3.org/2000/svg">
  <defs
     id="defs378" />
  <sodipodi:namedview
     id="namedview376"
     pagecolor="#ffffff"
     bordercolor="#000000"
     borderopacity="0.25"
     inkscape:showpageshadow="2"
     inkscape:pageopacity="0.0"
     inkscape:pagecheckerboard="true"
     inkscape:deskcolor="#d1d1d1"
     showgrid="false"
     inkscape:zoom="1.4254625"
     inkscape:cx="679.77939"
     inkscape:cy="50.860687"
     inkscape:window-width="1920"
     inkscape:window-height="1016"
     inkscape:window-x="0"
     inkscape:window-y="27"
     inkscape:window-maximized="1"
     inkscape:current-layer="g380" />
  <g
     inkscape:groupmode="layer"
     inkscape:label="Image"
     id="g380">
    <g
       id="g44"
       transform="matrix(0.68718508,0.25352594,0.25352594,-0.68718508,940.28035,52.833605)">
      <path
         d="M 0,0 C -2.077,1.104 -3.733,1.984 -5.389,2.863 -5.423,2.057 -5.743,1.117 -5.441,0.468 -4.451,-1.655 -2.975,-2.653 0,0 m -25.046,-50.142 c -1.425,0.609 -2.807,0.953 -3.882,1.725 -1.12,0.805 -1.945,2.023 -2.907,3.068 -1.711,-2.173 0.411,-6.047 4.979,-9.174 0.569,1.378 1.13,2.737 1.81,4.381 M -9.98,3.537 c -3.356,3.859 -6.515,4.699 -10.427,2.751 3.277,-1.8 5.449,-6.8 10.427,-2.751 m 2.588,-40.758 c 0.478,4.161 0.833,7.244 1.188,10.326 -3.086,-3.851 -5.972,-1.369 -8.783,-0.194 -0.185,-0.247 -0.371,-0.494 -0.556,-0.741 2.598,-2.994 5.196,-5.987 8.151,-9.391 m 1.954,-3.869 c 0.489,-1.828 0.913,-3.412 1.389,-5.193 4.845,6.986 5.045,11.334 0.8,15.182 -1.9,-1.863 -1.881,-3.975 -0.611,-6.061 1.302,-2.137 1.275,-3.581 -1.578,-3.928 m -28.546,-1.179 c -2.231,3.209 -4.161,5.985 -6.576,9.459 -0.584,-1.969 -1.74,-3.716 -1.276,-4.697 1.544,-3.261 3.67,-6.246 5.639,-9.444 0.853,1.805 1.606,3.399 2.213,4.682 m 29.659,27.844 c 2.503,-0.606 5.343,-1.295 9.104,-2.206 -2.799,4.763 -5.039,8.576 -7.714,13.127 -0.498,-3.915 -0.876,-6.887 -1.39,-10.921 m -16.502,-7.549 c -1.215,0.199 -2.743,0.858 -3.126,0.447 -3.075,-3.292 -6.586,-5.186 -11.378,-4.313 2.538,-1.706 5.024,-3.052 7.546,-4.329 1.575,-0.797 2.576,-0.127 3.314,1.366 1.03,2.08 2.179,4.1 3.644,6.829 m -2.437,-17.454 c -2.89,-3.924 -3.184,-6.955 -0.772,-8.539 2.524,-1.657 6.562,-0.311 8.319,2.745 -2.435,1.869 -4.867,3.736 -7.547,5.794 M -44.096,0.988 c 2.158,-0.767 3.582,-1.727 4.944,-1.646 1.855,0.112 4.041,0.563 5.398,1.693 1.902,1.584 3.172,3.926 5.203,6.587 -1.295,0.088 -2.597,0.587 -3.424,0.162 -3.913,-2.015 -7.697,-4.282 -12.121,-6.796 m 42.725,-20.995 c -0.636,0.001 -1.271,0.002 -1.906,0.003 -0.239,-1.958 -1.359,-4.478 -0.54,-5.76 1.891,-2.961 4.722,-5.322 7.37,-8.136 0.295,5.518 2.045,10.924 -2.381,15.422 -0.226,-3.266 -0.439,-6.327 -0.651,-9.388 -0.356,0.005 -0.711,0.01 -1.067,0.015 -0.275,2.615 -0.55,5.23 -0.825,7.844 m -6.374,-25.492 c -1.214,-0.336 -2.225,-0.664 -3.258,-0.892 -2.868,-0.633 -3.716,-2.163 -2.155,-4.683 1.538,-2.482 3.466,-4.722 5.332,-7.214 3.118,6.256 3.117,7.414 0.081,12.789 m -9.899,-5.315 c -0.387,-0.262 -0.774,-0.524 -1.161,-0.786 0.601,-1.992 1.202,-3.983 1.803,-5.974 -0.271,-0.125 -0.543,-0.251 -0.815,-0.376 -1.159,2.126 -2.317,4.251 -4.062,7.452 -0.857,-2.833 -2.609,-5.797 -1.863,-6.702 2.044,-2.479 5.138,-4.092 8.264,-6.374 1.075,3.006 2.832,5.475 2.445,7.541 -0.368,1.959 -2.984,3.496 -4.611,5.219 m 9.04,8.077 c -0.967,5.52 -5.884,7.934 -8.327,12.159 -0.287,-0.099 -0.573,-0.199 -0.86,-0.298 -0.164,-1.544 -0.329,-3.087 -0.492,-4.617 -1.031,-0.226 -2.084,-0.456 -3.215,-0.703 2.621,-5.241 8.282,-8.178 12.894,-6.541 m -7.965,29.344 c -0.504,0.005 -1.009,0.011 -1.513,0.017 -0.64,-2.07 -2.406,-4.724 -1.695,-6.093 1.718,-3.31 5.067,-5.939 8.863,-5.9 1.77,0.018 3.51,2.973 5.459,4.776 -3.529,1.571 -6.33,2.818 -9.131,4.065 -0.077,-0.2 -0.155,-0.4 -0.232,-0.601 -0.583,1.246 -1.167,2.491 -1.751,3.736 M -28.7,-42.101 c 3.005,4.419 5.987,8.805 8.97,13.191 -0.325,0.255 -0.65,0.509 -0.975,0.764 -1.854,-2.443 -2.923,-6.369 -6.988,-5.155 -3.07,0.916 -5.922,2.56 -8.898,3.892 -1.481,-2.276 3.494,-10.354 7.891,-12.692 m 19.632,25.881 c 1.05,3.725 1.973,6.556 2.634,9.448 0.922,4.039 -2.154,7.29 -6.213,6.155 0.425,-1.681 0.847,-3.345 1.074,-4.238 -1.682,-0.68 -3.541,-0.867 -4.133,-1.832 -0.58,-0.945 -0.369,-3.099 0.374,-3.985 1.649,-1.968 3.848,-3.475 6.264,-5.548 m -12.408,7.26 c 1.71,2.775 4.269,5.166 4.345,7.633 0.056,1.84 -3.097,3.778 -4.821,5.673 -0.279,-0.241 -0.558,-0.482 -0.837,-0.723 0.516,-3.145 4.448,-5.499 2.717,-8.97 -1.862,3.415 -3.754,6.887 -5.752,10.553 -1.451,-0.928 -2.875,-1.382 -3.477,-2.348 -0.654,-1.048 -1.206,-3.16 -0.65,-3.788 2.369,-2.676 5.164,-4.974 8.475,-8.03 m -30.288,-9.61 c 7.685,2.353 15.922,4.305 19.931,13.179 -0.642,0.779 -1.289,1.564 -2.186,2.653 -2.688,-2.624 -5.225,-5.101 -7.763,-7.578 -0.222,0.228 -0.444,0.456 -0.665,0.684 1.562,1.833 3.124,3.665 4.847,5.685 -2.15,0.507 -3.775,0.89 -5.695,1.343 -2.789,-5.258 -5.627,-10.609 -8.469,-15.966 m 23.559,5.194 c -0.235,-0.016 -0.47,-0.032 -0.705,-0.049 -0.153,1.965 -0.307,3.93 -0.412,5.277 -3.304,-3.339 -6.806,-6.878 -10.459,-10.568 1.155,-0.86 2.554,-1.991 4.044,-2.987 1.743,-1.166 3.574,-1.949 5.596,-0.498 1.641,1.178 3.666,2.022 4.895,3.526 2.015,2.463 5.15,4.317 5.493,8.596 -3.868,-5.459 -4.685,1.283 -7.325,1.101 -0.366,-1.431 -0.747,-2.914 -1.127,-4.398 m -23.258,-25.475 c 5.993,2.637 9.682,7.962 12.823,13.754 0.312,0.577 -0.349,1.682 -0.558,2.542 -0.797,-0.24 -1.612,-0.433 -2.384,-0.736 -0.499,-0.196 -0.934,-0.553 -2.216,-1.341 0.832,1.835 1.274,2.809 1.679,3.704 -2.159,3.433 -4.471,0.537 -6.559,0.163 -0.846,-0.152 -1.9,-1.903 -1.994,-3.001 -0.431,-4.997 -0.555,-10.021 -0.791,-15.085 m 57.855,19.139 c 0,-3.4 -0.028,-6.989 0.01,-10.577 0.026,-2.441 0.253,-4.884 0.173,-7.32 -0.037,-1.129 -0.591,-2.242 -0.911,-3.363 -0.904,0.831 -1.81,1.66 -2.711,2.493 -0.149,0.138 -0.276,0.3 -0.561,0.611 -0.978,-2.802 -1.908,-5.518 -2.874,-8.221 -1.456,-4.072 -2.99,-8.119 -4.38,-12.214 -0.46,-1.355 -0.482,-2.854 -0.888,-4.233 -0.261,-0.884 -0.857,-1.669 -1.303,-2.499 -0.572,0.583 -1.306,1.078 -1.68,1.768 -0.596,1.099 -0.952,2.328 -2.316,3.754 -0.899,-2.14 -1.761,-4.297 -2.719,-6.411 -0.314,-0.692 -0.776,-1.432 -1.382,-1.818 -0.217,-0.138 -1.073,0.682 -1.61,1.1 -2.195,1.706 -4.35,3.466 -6.595,5.101 -0.381,0.277 -1.424,0.288 -1.673,0 -2.7,-3.118 -2.99,0.129 -3.706,1.474 -1.555,2.92 -2.894,5.954 -4.321,8.942 -0.374,-0.102 -0.747,-0.203 -1.121,-0.304 -0.143,-0.973 -0.108,-2.024 -0.489,-2.893 -0.292,-0.667 -1.108,-1.105 -1.691,-1.644 -0.397,0.612 -1.063,1.19 -1.15,1.843 -0.693,5.245 -3.855,11.611 -7.868,15.461 -3.916,-1.99 -7.867,-4.024 -11.851,-5.991 -0.534,-0.264 -1.235,-0.19 -1.859,-0.272 0.017,0.678 -0.254,1.659 0.094,1.99 6.211,5.901 6.2,13.316 5.319,21.261 h -8.106 c 3.736,3.145 7.441,5.416 9.962,8.619 2.623,3.33 4.102,7.561 6.258,11.741 -2.36,0.909 -4.306,1.659 -7.214,2.779 1.197,0.645 1.573,1.026 1.94,1.019 6.379,-0.129 10.619,4.233 15.518,7.255 2.212,1.365 4.642,2.375 7.48,3.799 -0.41,6.78 -0.932,14.2 -1.231,21.628 -0.047,1.157 0.923,2.354 1.422,3.533 1.063,-0.502 2.43,-0.747 3.117,-1.564 1.026,-1.22 2.046,-2.786 2.224,-4.304 0.358,-3.053 0.155,-6.174 0.167,-9.266 0.012,-2.84 0.003,-5.68 0.003,-8.965 4.366,2.884 4.405,3.026 2.776,8.024 2.634,1.743 4.289,1.111 4.264,-1.908 -0.022,-2.739 -0.608,-5.472 -0.965,-8.363 C -9.097,12.648 -4.463,8.54 -0.142,3.556 1.355,1.83 3.744,0.881 5.715,-0.438 6.302,-0.83 6.854,-1.273 8.218,-2.282 5.388,-2.962 3.339,-3.454 0.942,-4.03 c 3.146,-5.213 6.272,-10.392 9.924,-16.443 -2.066,0.352 -3.459,0.588 -4.474,0.761"
         style="fill:#94d600;fill-opacity:1;fill-rule:nonzero;stroke:none"
         id="path46" />
    </g>
    <g
       id="g232"
       transform="matrix(1.3180935,0.11626422,0.11626422,-1.3180935,391.59064,163.71821)">
      <path
         d="m 0,0 c -0.205,-0.216 -0.437,-0.439 -0.68,-0.664 -1.476,1.366 -2.753,3.487 -3.493,6.859 -1.853,8.438 4.089,7.104 5.556,4.991 C 3.956,7.482 2.944,3.144 0,0 m -55.954,6.564 c -0.446,13.292 4.354,29.691 5.898,35.586 1.729,6.601 12.322,28.097 16.408,32.498 -0.786,-20.274 -11.223,-46.299 -17.431,-59.58 -1.529,-3.272 -3.202,-6.091 -4.875,-8.504 m -38.86,-16.75 c -1.113,1.455 -1.863,3.043 -1.972,4.342 -0.411,4.939 1.801,9.158 5.403,9.158 2.25,0 3.056,-4.198 1.641,-7.813 -0.664,-1.698 -2.549,-3.931 -5.072,-5.687 M -235.985,26.62 c 0,15.122 1.878,27.497 3.049,34.328 2.124,12.382 3.843,16.122 5.258,18.479 1.202,-7.417 4.145,-29.974 -8.02,-64.874 -0.184,3.741 -0.287,7.747 -0.287,12.067 M 47.509,-16.984 c -5.379,-0.052 -9.533,4.843 -10.985,8.67 -2.274,5.997 -2.498,11.997 1.647,28.298 0.449,1.767 -4.84,1.555 -7.512,0.926 C 29.198,16.944 27.338,8.513 27.149,0.195 27.092,0.16 27.042,0.126 26.984,0.09 25.014,-1.119 19.232,-3.232 18.979,2.028 18.587,10.2 21.167,18.594 21.089,20.087 20.932,20.951 14.19,18.963 14.19,18.963 13.979,18.278 13.15,10.038 12.672,4.334 11.766,-0.722 10.157,-3.558 6.22,-3.22 5.661,-3.172 5.048,-3.109 4.411,-3.005 5.24,-1.634 5.871,-0.076 6.168,1.719 7.455,9.488 4.985,13.038 0.307,15.26 c -6.85,2.708 -7.685,-3.182 -7.567,-7.367 0.085,-3.03 1.101,-7.213 3.961,-10.631 -5.953,-4.092 -15.666,-7.32 -16.967,2.832 -1.329,10.364 6.363,12.927 9.002,12.52 0.132,-0.032 0.264,-0.056 0.397,-0.094 1.467,1.511 3.244,8.285 2.616,8.599 -0.629,0.315 -3.488,0.8 -5.583,0.55 -0.568,-0.049 -1.119,-0.162 -1.652,-0.324 -2.752,-0.752 -5.767,-2.728 -8.497,-7.241 -0.551,-0.769 -1.139,-1.74 -1.671,-3.182 -0.79,-1.724 -1.544,-3.7 -2.243,-5.991 -3.929,-12.887 -10.687,-18.231 -15.402,-18.231 -3.895,0 -8.324,0.973 -10.899,9.104 3.868,3.68 8.556,8.612 11.842,14.156 3.518,5.937 20.274,29.076 18.388,70.568 -4.558,5.029 -9.587,5.815 -10.216,5.501 -0.628,-0.315 -11.158,-20.275 -13.045,-23.261 -1.857,-2.942 -17.735,-30.599 -14.448,-63.128 -2.743,-2.779 -4.897,-4.297 -5.511,-4.768 -1.336,-1.021 -4.008,-1.021 -4.087,1.179 -0.078,2.201 2.72,9.768 2.799,11.261 -0.155,0.497 -0.692,0.673 -1.337,0.704 -1.826,0.245 -7.293,0.73 -7.495,0.461 -0.147,-0.196 -0.179,-1.404 -0.582,-3.505 -0.268,-1.08 -0.623,-2.478 -1.009,-4.013 -0.075,-0.244 -0.151,-0.489 -0.234,-0.743 -1.65,-5.029 -3.761,-14.293 -8.518,-14.618 -0.901,-0.062 -1.828,0.159 -2.733,0.56 1.36,1.801 2.546,3.928 3.632,6.351 4.872,13.359 -2.667,14.22 -7.461,13.12 -4.687,-1.075 -8.562,-8.705 -4.777,-17.945 -1.91,-0.643 -3.964,-0.9 -6.025,-0.493 -8.225,1.623 -6.022,12.113 -4.939,13.541 1.729,2.278 4.136,1.887 5.203,0.82 0.691,-1.344 2.75,0.55 3.693,1.415 0.943,0.864 4.008,2.907 3.537,4.086 -0.472,1.179 -5.672,6.395 -11.552,3.772 -5.108,-2.279 -8.802,-7.544 -9.98,-14.302 -1.37,-7.851 -3.415,-10.417 -5.108,-10.373 -2.913,0.074 -2.087,6.497 -1.872,7.893 0.893,5.311 2.028,10.529 2.594,13.558 1.054,5.631 -0.897,10.313 -6.319,10.077 -4.921,-0.214 -10.329,-4.248 -11.29,-4.995 -0.405,0.34 -0.816,0.658 -1.232,0.948 -1.183,1.018 -2.828,1.924 -4.844,2.321 -6.404,1.864 -12.871,-0.419 -15.519,-2.657 -1.319,-1.114 -1.718,-5.385 -2.19,-7.271 -0.471,-1.886 -2.549,-10.444 -4.199,-17.281 -1.414,-4.715 -7.78,-15.088 -13.438,-12.495 -2.589,1.187 -3.318,3.769 -3.267,6.824 2.159,8.238 4.197,15.274 5.189,17.258 0.314,2.2 -9.116,0.314 -9.116,0.314 0,0 -6.196,-16.706 -7.029,-23.374 -1.1,-8.801 -12.888,-20.589 -22.553,-12.573 -4.965,4.116 -11.057,11.778 -14.35,30.162 4.541,12.1 8.596,27.702 10.813,40.562 3.772,21.375 6.574,61.689 7.544,65.381 -2.2,3.458 -9.115,2.515 -9.744,1.572 -0.629,-0.943 -12.18,-20.51 -14.066,-32.769 -1.886,-12.259 -4.48,-39.213 -2.279,-64.045 0.135,-1.53 0.274,-3.01 0.418,-4.444 -0.856,-2.01 -1.744,-4.042 -2.699,-6.119 -14.852,-32.298 -34.182,-53.561 -34.182,-53.561 2.829,-0.943 9.43,-1.572 10.373,-0.629 0.588,0.589 16.905,22.199 27.976,41.178 0.354,0.607 0.708,1.255 1.063,1.929 2.508,-11.308 6.701,-18.833 15.125,-25.818 9.115,-7.544 27.19,-4.087 33.791,10.058 0.046,0.193 0.092,0.388 0.139,0.582 2.622,-1.55 5.65,-1.288 7.09,-1.21 5.815,0.314 9.194,2.593 9.194,2.593 l 0.707,-0.943 c 0.708,-0.943 8.723,-1.179 8.488,1.65 -0.046,0.619 -0.036,1.435 0.019,2.399 1.599,8.036 3.835,24.808 8.077,30.706 1.208,1.679 8.438,3.396 7.545,-3.247 -1.046,-8.844 -5.741,-26.891 -5.911,-29.71 1.478,-0.341 7.571,-0.097 7.885,1.161 0.953,3.812 4.226,22.986 5.029,26.072 1.11,4.27 3.969,7.775 7.033,7.304 3.065,-0.472 3.184,-3.637 2.952,-5.814 -0.431,-4.041 -4.693,-20.62 -1.628,-26.042 3.064,-5.422 8.689,-12.029 24.179,-10.546 8.027,0.769 16.255,2.843 27.839,7.088 12.521,4.589 21.862,10.675 23.067,11.709 -0.864,1.016 -14.706,-3.685 -26.654,-8.293 -8.209,-3.166 -17.776,-5.462 -22.715,-5.636 -11.115,-0.391 -18.569,5.134 -19.92,11.685 4.365,-2.231 10.888,-2.068 12.475,4.024 0.023,0.089 0.044,0.181 0.067,0.271 1.964,-2.119 4.767,-3.572 8.511,-4.002 4.952,-0.569 8.693,0.326 11.685,2.369 1.907,-0.885 4.093,-1.083 6.323,-1.083 2.835,0 5.705,1.362 8.277,3.645 1.005,-1.067 2.432,-1.881 4.349,-1.801 3.67,0.153 11.936,4.468 15.712,7.741 3.059,-7.718 8.947,-11.67 16.192,-11.67 9.119,0 18.07,5.325 20.159,13.125 1.719,-2.081 3.712,-3.584 5.336,-4.248 3.889,-1.591 10.65,-0.315 14.422,1.866 1.596,0.922 3.394,2.077 5.017,3.566 4.175,-1.984 10.567,-1.356 13.524,0.148 1.396,-1.546 3.318,-2.805 5.745,-3.063 1.782,-0.189 4.854,0.131 7.638,1.178 1.494,-3.631 4.228,-7.21 7.529,-10.005 3.818,-3.233 7.719,-3.991 11.982,-3.955 8.438,0.072 11.422,4.94 11.885,12.735 -2.932,-5.403 -4.399,-7.409 -12.271,-7.487"
         style="fill:#ffffff;fill-opacity:1;fill-rule:nonzero;stroke:none"
         id="path234" />
    </g>
    <g
       id="g224"
       transform="matrix(1.3333333,0,0,-1.3333333,150.27989,129.35092)"
       style="fill:#ffffff;fill-opacity:1">
      <path
         d="M 0,0 C 3.382,-1.353 7.777,1.523 5.456,2.923 3.115,4.335 4.481,5.651 0,6.625 -4.481,7.599 -4.879,1.952 0,0"
         style="fill:#ffffff;fill-opacity:1;fill-rule:nonzero;stroke:none"
         id="path226" />
    </g>
    <g
       id="g228"
       transform="matrix(1.3333333,0,0,-1.3333333,300.99535,129.47265)"
       style="fill:#ffffff;fill-opacity:1">
      <path
         d="m 0,0 c -1.024,3.735 -4.991,-1.547 -6.509,-4.916 0.797,0.597 1.921,1.061 2.601,1.008 C -2.535,-4.013 0.964,-3.518 0,0"
         style="fill:#ffffff;fill-opacity:1;fill-rule:nonzero;stroke:none"
         id="path230" />
    </g>
    <g
       id="g204"
       transform="matrix(0.43346882,0.00858727,0.00865237,-0.43020722,649.07737,133.58294)"
       style="fill:#ffffff;fill-opacity:1">
      <path
         d="M 0,0 C 2.647,2.079 12.688,6.234 10.545,-12.308 -0.851,-11.787 -2.135,-1.677 0,0 m -66.384,-4.66 c 4.662,2.884 8.659,3.328 8.881,-1.779 1.332,-23.978 -25.089,-59.945 -25.089,-59.945 -1.797,-2.326 -3.575,-4.533 -5.34,-6.669 -1.276,5.284 -1.986,11.399 -1.986,18.436 0,33.303 21.423,48.651 23.534,49.957 m -208.28,-137.702 c -21.647,-13.321 -53.131,-6.788 -61.124,18.522 -7.993,25.311 2.424,60.675 2.424,60.675 18.65,20.315 30.972,27.309 52.952,27.309 21.98,0 37.633,-10.324 38.632,-39.964 0.999,-29.64 -11.237,-53.221 -32.884,-66.542 m 339.05,66.209 c -5.107,36.855 8.659,60.612 11.545,67.494 2.886,6.883 11.767,19.094 11.767,23.09 -1.11,1.777 -14.875,10.657 -19.76,10.657 C 66.148,21.561 60.834,9.769 33.081,-5.328 30.458,-6.755 28.04,-7.906 25.78,-8.858 24.639,12.74 15.128,19.982 10.435,19.982 c -5.329,0 -27.087,-1.11 -27.087,-23.312 0,-15.076 12.692,-22.571 23.482,-25.972 -13.16,-44.874 -49.74,-71.495 -63.223,-71.495 -8.682,0 -16.87,3.083 -22.982,10.103 9.283,9.523 31.611,35.246 41.069,50.749 7.382,12.1 11.081,24.907 9.426,36.695 -1.338,9.534 -6.144,17.291 -17.563,19.729 0,0 -23.246,6.822 -40.342,-7.609 -17.096,-14.431 -26.89,-43.727 -26.89,-58.159 0,-11.021 0.701,-26.3 11.147,-39.736 -25.207,-24.696 -43.965,-30.184 -60.075,-30.184 -20.204,0 -33.32,18.657 -36.771,33.509 -3.979,17.119 -0.902,41.191 15.47,60.029 13.16,15.144 39.206,22.536 43.528,8.644 4.322,-13.892 -5.119,-23.912 -11.114,-29.018 -5.995,-5.107 -19.163,-9.927 -25.519,-11.407 -4.047,-0.941 -14.366,-0.794 -14.813,-7.069 -0.563,-10.894 31.287,-10.463 42.596,-6.427 13.289,4.743 26.449,14.777 27.115,38.977 0.666,24.2 -13.321,33.081 -33.081,33.303 -15.865,0.178 -58.916,-15.388 -67.045,-59.536 -3.528,7.979 -8.76,15.279 -15.88,21.349 -20.315,17.317 -51.62,27.308 -86.255,12.655 5.329,14.986 17.651,49.954 13.321,96.246 -4.329,46.291 -32.303,75.264 -32.303,75.264 0,0 -23.979,-0.666 -24.645,-2.331 0,0 35.301,-53.285 30.972,-101.241 -4.329,-47.956 -29.045,-91.688 -29.045,-126.324 0,-34.635 6.139,-54.568 23.39,-69.86 17.786,-15.768 104.232,-20.952 123.548,46.32 0.299,1.165 0.564,2.337 0.812,3.512 11.763,-27.241 40.329,-28.6 54.915,-28.6 20.842,0 56.96,15.5 73.42,30.578 0.074,-0.05 0.141,-0.101 0.215,-0.151 4.626,-3.121 20.516,-13.289 37.375,-12.887 18.65,0.444 34.857,14.209 47.291,26.198 8.157,9.323 24.162,27.156 29.352,55.989 7.933,1.074 17.504,4.96 22.6,7.509 -2.22,-4.219 -5.328,-22.868 -6.882,-32.415 -1.11,-6.661 -4.663,-35.301 18.871,-47.29 19.094,-11.324 77.699,-14.909 95.691,47.29 -33.969,-48.179 -85.034,-56.615 -90.14,-19.76"
         style="fill:#ffffff;fill-opacity:1;fill-rule:nonzero;stroke:none"
         id="path206" />
    </g>
    <g
       id="g813"
       transform="matrix(0.47879528,0.03498218,0.03498218,-0.47879528,611.87414,346.30461)"
       style="fill:#ffffff;fill-opacity:1">
      <g
         id="g208"
         transform="translate(335.7437,464.2128)"
         style="fill:#ffffff;fill-opacity:1">
        <path
           d="M 0,0 C 0,2.51 0.666,7.66 -2.997,7.327 -9.738,6.714 -25.061,-6.91 -34.302,-12.655 c 0,-4.996 0.333,-15.32 -1.665,-33.969 -1.74,-16.236 -3.664,-30.639 -1.665,-36.301 1.677,-4.752 5.328,-14.986 6.327,-17.65 0.74,-1.972 -2.664,-1.998 -14.986,2.997 -15.986,8.992 -15.653,22.979 -13.654,44.293 1.073,11.448 3.996,36.633 3.996,41.296 0,4.662 -2.331,9.991 -8.326,8.326 -5.994,-1.665 -21.647,-15.986 -21.647,-15.986 0,0 1.665,-73.933 1.665,-77.596 0,-3.663 -11.989,-4.329 -16.984,-3.996 -3.655,0.243 -5.662,1.443 -5.995,5.328 -0.333,3.886 -3.204,106.718 -3.204,106.718 8.533,2.849 13.528,3.182 16.858,2.183 3.331,-0.999 5.662,-2.997 5.662,-4.329 V 3.996 c 0,0 7.993,8.992 20.315,11.656 12.322,2.665 15.985,-4.995 22.979,-8.658 10.657,8.658 21.647,17.317 33.969,18.982 12.322,1.666 20.648,-3.996 25.31,-9.324 4.663,-5.329 11.656,-13.655 10.657,-28.641 -0.999,-14.986 -6.66,-62.943 -0.999,-77.596 5.662,-14.654 15.653,-35.301 31.971,-40.63 16.319,-5.328 31.971,-9.991 41.962,-9.658 1.998,-0.666 1.998,-4.995 1.998,-4.995 -17.317,-0.999 -48.289,1.998 -64.275,12.655 -15.985,10.657 -36.966,26.309 -38.298,73.6 C -2.997,-38.632 0,-7.993 0,0"
           style="fill:#ffffff;fill-opacity:1;fill-rule:nonzero;stroke:none"
           id="path210" />
      </g>
      <g
         id="g212"
         transform="translate(497.1525,401.6031)"
         style="fill:#ffffff;fill-opacity:1">
        <path
           d="m 0,0 c -14.69,-20.119 -40.186,-15.097 -45.514,-10.324 -5.329,4.773 -11.323,11.545 -15.098,37.744 -4.213,29.246 12.434,71.268 16.985,81.925 0.555,-4.107 1.221,-13.543 -5.329,-40.408 -6.549,-26.864 -19.093,-46.513 -25.865,-56.615 -7.66,-11.323 -17.65,-17.984 -24.644,-8.659 -6.994,9.325 -9.325,17.984 -1.665,45.626 -4.33,4.662 -16.985,8.325 -16.985,8.325 0,0 -4.329,-11.656 -4.995,-13.987 -0.666,-2.331 -8.992,-33.969 -27.642,-43.627 -8.326,-4.662 -12.655,-5.995 -14.32,-6.328 -1.665,-0.333 -6.412,-3.523 -1.998,-5.328 7.326,-2.997 16.984,-0.333 23.645,1.665 6.16,1.848 22.646,9.991 25.643,30.639 1.998,-20.315 8.659,-21.647 11.323,-22.979 2.664,-1.332 15.986,-5.329 23.645,-1.665 7.66,3.663 16.319,5.994 27.975,29.639 11.656,23.646 30.306,60.279 29.307,99.909 -0.333,16.319 -11.323,28.974 -25.977,2.332 -14.653,-26.643 -21.98,-51.287 -21.98,-67.605 0,-13.734 -1.11,-39.52 -0.666,-49.511 0.729,-16.388 10.657,-33.969 27.753,-35.745 17.095,-1.776 31.064,-2.287 50.398,16.207 20.426,19.538 51.953,57.725 40.186,87.92 -11.767,30.195 -45.07,9.103 -56.171,-0.888 C -23.09,68.271 -31.091,54.76 -30.417,34.08 c 0.666,-20.426 15.542,-37.077 25.533,-45.292 9.99,-8.215 31.97,-9.103 48.4,0.222 16.429,9.325 37.965,27.975 45.292,72.157 -0.222,1.998 -2.886,3.33 -2.886,3.33 0,0 -7.515,-19.85 -14.209,-32.193 C 64.608,19.205 40.186,-7.438 20.648,-7.66 1.11,-7.882 -6.217,7.438 -6.217,28.53 c 0,21.092 4.219,33.081 28.641,48.4 C 27.531,67.827 34.04,56.215 22.868,35.634 14.431,20.093 5.106,6.994 0,0"
           style="fill:#ffffff;fill-opacity:1;fill-rule:nonzero;stroke:none"
           id="path214" />
      </g>
      <g
         id="g216"
         transform="translate(382.732,486.933)"
         style="fill:#ffffff;fill-opacity:1">
        <path
           d="m 0,0 c 2.568,1.812 7.01,1.931 8.987,2.035 3.222,0.169 7.394,-2.457 7.858,-3.847 0.463,-1.39 2.548,-5.561 0.926,-7.415 -0.926,-1.158 -2.438,-1.205 -5.392,-1.795 -2.652,-0.53 -7.583,0.173 -8.742,0.869 -1.158,0.695 -5.329,5.329 -5.792,6.256 C -2.619,-2.971 -1.378,-0.973 0,0"
           style="fill:#ffffff;fill-opacity:1;fill-rule:nonzero;stroke:none"
           id="path218" />
      </g>
    </g>
    <g
       id="g60"
       transform="matrix(-0.75266681,-0.10210501,-0.12797021,0.60053858,887.96074,-57.037998)">
      <path
         d="m -81.721203,124.94373 c 3.872,0.688 12.091203,2.00027 16.124203,1.74027 12.972,-0.836 19.549,-9.922 24.531,-20.126 2.926216,-2.45892 17.141129,-32.456243 -3.757,-3.519 -8.244,11.612 -19.859,15.823 -33.622,14.777 -4.669,-0.355 -19.055184,-1.68469 -23.57418,-2.88769"
         style="fill:#94d600;fill-opacity:1;fill-rule:nonzero;stroke:none"
         id="path62"
         sodipodi:nodetypes="cccccc" />
    </g>
  </g>
</svg>
